<svg width="20" height="20" viewBox="0 0 20 20" fill="none" xmlns="http://www.w3.org/2000/svg">
<path d="M9.99935 1.6665C5.39935 1.6665 1.66602 5.39984 1.66602 9.99984C1.66602 14.5998 5.39935 18.3332 9.99935 18.3332C14.5993 18.3332 18.3327 14.5998 18.3327 9.99984C18.3327 5.39984 14.5993 1.6665 9.99935 1.6665ZM9.99935 16.6665C6.32435 16.6665 3.33268 13.6748 3.33268 9.99984C3.33268 6.32484 6.32435 3.33317 9.99935 3.33317C13.6743 3.33317 16.666 6.32484 16.666 9.99984C16.666 13.6748 13.6743 16.6665 9.99935 16.6665ZM5.41602 14.5832L11.6743 11.6748L14.5827 5.4165L8.32435 8.32484L5.41602 14.5832ZM9.99935 9.08317C10.5077 9.08317 10.916 9.4915 10.916 9.99984C10.916 10.5082 10.5077 10.9165 9.99935 10.9165C9.49102 10.9165 9.08268 10.5082 9.08268 9.99984C9.08268 9.4915 9.49102 9.08317 9.99935 9.08317Z" fill="black" fill-opacity="0.6"/>
</svg>
