<svg width="20" height="20" viewBox="0 0 20 20" fill="none" xmlns="http://www.w3.org/2000/svg">
<path d="M12.916 9.1665C13.6064 9.1665 14.166 8.60686 14.166 7.9165C14.166 7.22615 13.6064 6.6665 12.916 6.6665C12.2257 6.6665 11.666 7.22615 11.666 7.9165C11.666 8.60686 12.2257 9.1665 12.916 9.1665Z" fill="black" fill-opacity="0.56"/>
<path d="M7.08268 9.1665C7.77304 9.1665 8.33268 8.60686 8.33268 7.9165C8.33268 7.22615 7.77304 6.6665 7.08268 6.6665C6.39233 6.6665 5.83268 7.22615 5.83268 7.9165C5.83268 8.60686 6.39233 9.1665 7.08268 9.1665Z" fill="black" fill-opacity="0.56"/>
<path d="M9.99935 11.6665C8.05768 11.6665 6.39935 12.8748 5.73268 14.5832H7.12435C7.69935 13.5915 8.76602 12.9165 9.99935 12.9165C11.2327 12.9165 12.291 13.5915 12.8743 14.5832H14.266C13.5993 12.8748 11.941 11.6665 9.99935 11.6665ZM9.99102 1.6665C5.39102 1.6665 1.66602 5.39984 1.66602 9.99984C1.66602 14.5998 5.39102 18.3332 9.99102 18.3332C14.5993 18.3332 18.3327 14.5998 18.3327 9.99984C18.3327 5.39984 14.5993 1.6665 9.99102 1.6665ZM9.99935 16.6665C6.31602 16.6665 3.33268 13.6832 3.33268 9.99984C3.33268 6.3165 6.31602 3.33317 9.99935 3.33317C13.6827 3.33317 16.666 6.3165 16.666 9.99984C16.666 13.6832 13.6827 16.6665 9.99935 16.6665Z" fill="black" fill-opacity="0.56"/>
</svg>
