<svg width="20" height="20" viewBox="0 0 20 20" fill="none" xmlns="http://www.w3.org/2000/svg">
<path d="M9.16602 14.9998H10.8327V13.3332H9.16602V14.9998ZM9.99935 1.6665C5.39935 1.6665 1.66602 5.39984 1.66602 9.99984C1.66602 14.5998 5.39935 18.3332 9.99935 18.3332C14.5993 18.3332 18.3327 14.5998 18.3327 9.99984C18.3327 5.39984 14.5993 1.6665 9.99935 1.6665ZM9.99935 16.6665C6.32435 16.6665 3.33268 13.6748 3.33268 9.99984C3.33268 6.32484 6.32435 3.33317 9.99935 3.33317C13.6743 3.33317 16.666 6.32484 16.666 9.99984C16.666 13.6748 13.6743 16.6665 9.99935 16.6665ZM9.99935 4.99984C8.15768 4.99984 6.66602 6.4915 6.66602 8.33317H8.33268C8.33268 7.4165 9.08268 6.6665 9.99935 6.6665C10.916 6.6665 11.666 7.4165 11.666 8.33317C11.666 9.99984 9.16602 9.7915 9.16602 12.4998H10.8327C10.8327 10.6248 13.3327 10.4165 13.3327 8.33317C13.3327 6.4915 11.841 4.99984 9.99935 4.99984Z" fill="black" fill-opacity="0.56"/>
</svg>
