<svg width="48" height="40" viewBox="0 0 48 40" fill="none" xmlns="http://www.w3.org/2000/svg">
<path d="M10 27.433C14.6425 27.433 16.2551 22.0148 16.2551 22.0148M33.4567 12.3104V8.55001M33.4567 8.55001C33.4567 8.55001 35.1671 8.55001 35.9001 8.55001C37.7083 8.55001 38.3924 10.1674 38.3924 10.1674C38.3924 10.1674 38.425 11.2861 38.4902 13.5235H37.4151L35.9001 12.3104H30.2314C30.2314 12.3104 30.2774 14.0652 30.2803 14.8174C30.2837 15.7043 28.798 16.5696 27.8858 16.5965C27.2776 16.6145 26.0233 16.6414 24.1229 16.6774V17.5669L18.0144 29.0908C16.5158 31.1121 13.8443 32.1228 10 32.1228C10 32.1228 10 22.9162 10 18.9531C10 15.9359 13.8606 12.7148 18.0144 12.7556C19.1871 12.7671 21.2233 12.767 24.1229 12.7552M33.4567 8.55001C31.3219 7.99018 29.9373 7.65323 29.3029 7.53914C27.9346 7.29653 25.7844 8.1861 25.8333 10.0865C25.848 11.0692 25.8972 12.7681 25.8972 12.7681L24.1229 12.7552M22.4964 32.2614H19.6692L19.6871 28.7542M18.2085 28.7135C18.8328 28.7135 19.1449 28.7135 19.1449 28.7135C22.6443 28.6727 24.1229 27.5139 24.1229 25.0878C24.1229 21.388 24.1229 12.7552 24.1229 12.7552" stroke="black" stroke-width="2"/>
</svg>
