<svg width="16" height="16" viewBox="0 0 16 16" fill="none" xmlns="http://www.w3.org/2000/svg">
<path d="M14.6673 2L13.554 3.11333L12.4473 2L11.334 3.11333L10.2207 2L9.11398 3.11333L8.00065 2L6.88732 3.11333L5.78065 2L4.66732 3.11333L3.55398 2L2.44732 3.11333L1.33398 2V12.6667C1.33398 13.4 1.93398 14 2.66732 14H13.334C14.0673 14 14.6673 13.4 14.6673 12.6667V2ZM7.33398 12.6667H2.66732V8.66667H7.33398V12.6667ZM13.334 12.6667H8.66732V11.3333H13.334V12.6667ZM13.334 10H8.66732V8.66667H13.334V10ZM13.334 7.33333H2.66732V5.33333H13.334V7.33333Z" fill="black" fill-opacity="0.6"/>
</svg>
