<svg width="20" height="20" viewBox="0 0 20 20" fill="none" xmlns="http://www.w3.org/2000/svg">
<path d="M13.959 3.33317V16.6665C14.8756 16.6665 15.6256 15.9165 15.6256 14.9998V4.99984C15.6256 4.08317 14.8756 3.33317 13.959 3.33317Z" fill="black" fill-opacity="0.6"/>
<path d="M10.6257 1.6665H3.12565C2.20898 1.6665 1.45898 2.4165 1.45898 3.33317V16.6665C1.45898 17.5832 2.20898 18.3332 3.12565 18.3332H10.6257C11.5423 18.3332 12.2923 17.5832 12.2923 16.6665V3.33317C12.2923 2.4165 11.5423 1.6665 10.6257 1.6665ZM10.6257 16.6665H3.12565V3.33317H10.6257V16.6665Z" fill="black" fill-opacity="0.6"/>
<path d="M17.2923 4.99984V14.9998C17.984 14.9998 18.5423 14.4415 18.5423 13.7498V6.24984C18.5423 5.55817 17.984 4.99984 17.2923 4.99984Z" fill="black" fill-opacity="0.6"/>
</svg>
